<svg width="32" height="32" viewBox="0 0 32 32" fill="none" xmlns="http://www.w3.org/2000/svg">
<path fill-rule="evenodd" clip-rule="evenodd" d="M25.2857 10.0893C25.2857 9.70466 25.5975 9.39286 25.9821 9.39286H28.3036C28.6882 9.39286 29 9.70466 29 10.0893C29 10.4739 28.6882 10.7857 28.3036 10.7857H25.9821C25.5975 10.7857 25.2857 10.4739 25.2857 10.0893Z" fill="white"/>
<path fill-rule="evenodd" clip-rule="evenodd" d="M27.1429 8C27.5275 8 27.8393 8.3118 27.8393 8.69643V12.875C27.8393 13.2596 27.5275 13.5714 27.1429 13.5714C26.7582 13.5714 26.4464 13.2596 26.4464 12.875V8.69643C26.4464 8.3118 26.7582 8 27.1429 8Z" fill="white"/>
<path fill-rule="evenodd" clip-rule="evenodd" d="M7.17857 20.0714C8.12959 20.0714 9.5 18.9822 9.5 16.8214C9.5 14.6607 8.12959 13.5714 7.17857 13.5714C6.22755 13.5714 4.85714 14.6607 4.85714 16.8214C4.85714 18.9822 6.22755 20.0714 7.17857 20.0714ZM7.17857 21.9286C9.48633 21.9286 11.3571 19.642 11.3571 16.8214C11.3571 14.0008 9.48633 11.7143 7.17857 11.7143C4.87081 11.7143 3 14.0008 3 16.8214C3 19.642 4.87081 21.9286 7.17857 21.9286Z" fill="white"/>
<path fill-rule="evenodd" clip-rule="evenodd" d="M7.08571 17.4714C7.49598 17.1637 8.07801 17.2469 8.38571 17.6571L11.1714 21.3714C11.4791 21.7817 11.396 22.3637 10.9857 22.6714C10.5754 22.9791 9.99342 22.896 9.68571 22.4857L6.9 18.7714C6.5923 18.3612 6.67545 17.7791 7.08571 17.4714Z" fill="white"/>
<path fill-rule="evenodd" clip-rule="evenodd" d="M12.75 11.7143C13.2628 11.7143 13.6786 12.13 13.6786 12.6429V21C13.6786 21.5128 13.2628 21.9286 12.75 21.9286C12.2372 21.9286 11.8214 21.5128 11.8214 21V12.6429C11.8214 12.13 12.2372 11.7143 12.75 11.7143Z" fill="white"/>
<path fill-rule="evenodd" clip-rule="evenodd" d="M12.2857 12.6429C12.2857 12.13 12.7014 11.7143 13.2143 11.7143H17.3929C17.9057 11.7143 18.3214 12.13 18.3214 12.6429C18.3214 13.1557 17.9057 13.5714 17.3929 13.5714H13.2143C12.7014 13.5714 12.2857 13.1557 12.2857 12.6429Z" fill="white"/>
<path fill-rule="evenodd" clip-rule="evenodd" d="M12.2857 16.3571C12.2857 15.8443 12.7014 15.4286 13.2143 15.4286H16.9286C17.4414 15.4286 17.8571 15.8443 17.8571 16.3571C17.8571 16.87 17.4414 17.2857 16.9286 17.2857H13.2143C12.7014 17.2857 12.2857 16.87 12.2857 16.3571Z" fill="white"/>
<path fill-rule="evenodd" clip-rule="evenodd" d="M18.7857 12.6429C18.7857 12.13 19.2014 11.7143 19.7143 11.7143H25.2857C25.7985 11.7143 26.2143 12.13 26.2143 12.6429C26.2143 13.1557 25.7985 13.5714 25.2857 13.5714H19.7143C19.2014 13.5714 18.7857 13.1557 18.7857 12.6429Z" fill="white"/>
<path fill-rule="evenodd" clip-rule="evenodd" d="M22.5 21.9286C21.9872 21.9286 21.5714 21.5128 21.5714 21V12.6429C21.5714 12.13 21.9872 11.7143 22.5 11.7143C23.0128 11.7143 23.4286 12.13 23.4286 12.6429V21C23.4286 21.5128 23.0128 21.9286 22.5 21.9286Z" fill="white"/>
</svg>
