<svg width="32" height="32" viewBox="0 0 32 32" fill="none" xmlns="http://www.w3.org/2000/svg">
<path d="M19.6262 11.6703C19.8948 12.1529 20.5037 12.3264 20.9863 12.0578C21.4689 11.7892 21.6424 11.1803 21.3738 10.6977L19.6262 11.6703ZM12.3738 20.028C12.1052 19.5454 11.4963 19.3719 11.0137 19.6405C10.5311 19.9091 10.3576 20.518 10.6262 21.0006L12.3738 20.028ZM16.6923 16.0357L16.3845 16.9873L16.3979 16.9914L16.6923 16.0357ZM15.1308 7.58727C13.9187 7.80509 12.775 8.35897 11.9619 9.25051C11.1316 10.1609 10.6892 11.3806 10.8528 12.792L12.8395 12.5617C12.7435 11.7337 12.9934 11.0874 13.4396 10.5983C13.9029 10.0903 14.6198 9.71114 15.4846 9.55574L15.1308 7.58727ZM21.3738 10.6977C20.1534 8.50464 17.6784 7.12948 15.1308 7.58727L15.4846 9.55574C17.0908 9.26711 18.7697 10.1312 19.6262 11.6703L21.3738 10.6977ZM10.8528 12.792C11.0348 14.3617 12.0385 15.2684 13.1267 15.8317C14.1435 16.358 15.451 16.6852 16.3846 16.9872L17.0001 15.0843C15.8531 14.7133 14.8673 14.4806 14.0461 14.0556C13.2963 13.6675 12.9171 13.2312 12.8395 12.5617L10.8528 12.792ZM19.5 19.7679C19.5 20.4686 19.3425 20.9398 19.1382 21.2667C18.9331 21.5949 18.641 21.8409 18.2737 22.0272C17.502 22.4185 16.4944 22.5 15.6538 22.5L15.6538 24.5C16.5441 24.5 17.9596 24.4289 19.1782 23.8109C19.8061 23.4925 20.4011 23.0196 20.8342 22.3268C21.268 21.6326 21.5 20.7806 21.5 19.7679H19.5ZM15.6538 22.5C14.4353 22.5 13.3229 21.7335 12.3738 20.028L10.6262 21.0006C11.754 23.0272 13.4108 24.5 15.6538 24.5L15.6538 22.5ZM16.3979 16.9914C17.4338 17.3105 18.1959 17.5567 18.7313 17.964C19.1726 18.2997 19.5 18.7782 19.5 19.7679H21.5C21.5 18.1928 20.9111 17.1094 19.9423 16.3723C19.0676 15.7069 17.9259 15.3693 16.9867 15.08L16.3979 16.9914Z" fill="white"/>
<path d="M22 8H26M24 5V13" stroke="white" stroke-width="1.5" stroke-linecap="round"/>
</svg>
