<svg width="32" height="32" viewBox="0 0 32 32" fill="none" xmlns="http://www.w3.org/2000/svg">
<path d="M0 4C0 1.79086 1.79086 0 4 0H28C30.2091 0 32 1.79086 32 4V28C32 30.2091 30.2091 32 28 32H4C1.79086 32 0 30.2091 0 28V4Z" fill="#A855F7"/>
<path d="M7 7V25M22.0968 7L25 16L22.0968 25" stroke="#E4E4E7" stroke-width="1.5" stroke-linecap="round" stroke-linejoin="round"/>
<path d="M15.9932 10.6436C17.0824 10.6436 17.9049 11.0879 18.4609 11.9766C19.0215 12.8652 19.3018 14.18 19.3018 15.9209C19.3018 17.6618 19.0215 18.9766 18.4609 19.8652C17.9049 20.7539 17.0824 21.1982 15.9932 21.1982C14.904 21.1982 14.0814 20.7539 13.5254 19.8652C12.9694 18.9766 12.6914 17.6618 12.6914 15.9209C12.6914 14.18 12.9694 12.8652 13.5254 11.9766C14.0814 11.0879 14.904 10.6436 15.9932 10.6436ZM15.9932 20.1045C16.6403 20.1045 17.1211 19.7604 17.4355 19.0723C17.7546 18.3841 17.9141 17.3337 17.9141 15.9209C17.9141 15.1689 17.8685 14.4899 17.7773 13.8838L14.5234 18.9766C14.8652 19.7285 15.3551 20.1045 15.9932 20.1045ZM15.9932 11.7373C15.3506 11.7373 14.8698 12.0814 14.5508 12.7695C14.2363 13.4577 14.0791 14.5081 14.0791 15.9209C14.0791 16.5635 14.1224 17.165 14.209 17.7256L17.3945 12.6465C17.0482 12.0404 16.5811 11.7373 15.9932 11.7373Z" fill="white"/>
</svg>
