<svg width="40" height="40" viewBox="0 0 40 40" fill="none" xmlns="http://www.w3.org/2000/svg">
<path d="M4 8C4 5.79086 5.79086 4 8 4H32C34.2091 4 36 5.79086 36 8V32C36 34.2091 34.2091 36 32 36H8C5.79086 36 4 34.2091 4 32V8Z" fill="#10B981"/>
<path d="M34 1H6C3.23858 1 1 3.23858 1 6V34C1 36.7614 3.23858 39 6 39H34C36.7614 39 39 36.7614 39 34V6C39 3.23858 36.7614 1 34 1Z" stroke="#D4D4D8" stroke-width="2"/>
<path d="M15 20H25M25 12V28M15 12V28" stroke="white" stroke-width="2" stroke-linecap="round"/>
</svg>
