<svg width="32" height="32" viewBox="0 0 32 32" fill="none" xmlns="http://www.w3.org/2000/svg">
<path d="M0 4C0 1.79086 1.79086 0 4 0H28C30.2091 0 32 1.79086 32 4V28C32 30.2091 30.2091 32 28 32H4C1.79086 32 0 30.2091 0 28V4Z" fill="#A855F7"/>
<path d="M10.4 16.375C10.4 16.9963 10.9373 17.5 11.6 17.5C12.2627 17.5 12.8 16.9963 12.8 16.375C12.8 15.7537 12.2627 15.25 11.6 15.25C10.9373 15.25 10.4 15.7537 10.4 16.375Z" fill="white"/>
<path d="M10 4C13.3948 4 16.6505 5.26428 19.051 7.51472C21.4514 9.76516 22.8 12.8174 22.8 16C22.8 19.1826 21.4514 22.2348 19.051 24.4853C16.6505 26.7357 13.3948 28 10 28M11.6 16.375L26 24.25M11.6 17.5C10.9373 17.5 10.4 16.9963 10.4 16.375C10.4 15.7537 10.9373 15.25 11.6 15.25C12.2627 15.25 12.8 15.7537 12.8 16.375C12.8 16.9963 12.2627 17.5 11.6 17.5Z" stroke="white" stroke-width="2" stroke-linecap="round" stroke-linejoin="round"/>
</svg>
