<svg width="32" height="32" viewBox="0 0 32 32" fill="none" xmlns="http://www.w3.org/2000/svg">
<path d="M16.375 21.6C16.9963 21.6 17.5 21.0627 17.5 20.4C17.5 19.7373 16.9963 19.2 16.375 19.2C15.7537 19.2 15.25 19.7373 15.25 20.4C15.25 21.0627 15.7537 21.6 16.375 21.6Z" fill="#A855F7"/>
<path d="M4 22C4 18.6052 5.26428 15.3495 7.51472 12.949C9.76516 10.5486 12.8174 9.2 16 9.2C19.1826 9.2 22.2348 10.5486 24.4853 12.949C26.7357 15.3495 28 18.6052 28 22M16.375 20.4L24.25 6M17.5 20.4C17.5 21.0627 16.9963 21.6 16.375 21.6C15.7537 21.6 15.25 21.0627 15.25 20.4C15.25 19.7373 15.7537 19.2 16.375 19.2C16.9963 19.2 17.5 19.7373 17.5 20.4Z" stroke="#A855F7" stroke-width="2" stroke-linecap="round" stroke-linejoin="round"/>
</svg>
