<svg width="32" height="32" viewBox="0 0 32 32" fill="none" xmlns="http://www.w3.org/2000/svg">
<path fill-rule="evenodd" clip-rule="evenodd" d="M4 23C3.44772 23 3 22.5523 3 22C3 18.3601 4.35498 14.8573 6.78518 12.2651C9.21744 9.67069 12.5306 8.2 16 8.2C17.8331 8.2 19.6226 8.61056 21.2615 9.3805L23.3726 5.52019C23.6376 5.03563 24.2453 4.85764 24.7298 5.12263C25.2144 5.38762 25.3924 5.99525 25.1274 6.47981L22.9996 10.3707C23.7956 10.9105 24.5392 11.5444 25.2148 12.2651C27.645 14.8573 29 18.3601 29 22C29 22.5523 28.5523 23 28 23C27.4477 23 27 22.5523 27 22C27 18.8504 25.8264 15.8417 23.7557 13.633C23.226 13.0679 22.6489 12.5672 22.0348 12.1348L18.1634 19.214C18.3786 19.5633 18.5 19.9744 18.5 20.4C18.5 21.5533 17.6084 22.6 16.375 22.6C15.1416 22.6 14.25 21.5533 14.25 20.4C14.25 19.2467 15.1416 18.2 16.375 18.2C16.3961 18.2 16.417 18.2003 16.4379 18.2009L20.2998 11.1392C18.9501 10.5242 17.4889 10.2 16 10.2C13.1042 10.2 10.3129 11.4264 8.24426 13.633C6.17359 15.8417 5 18.8504 5 22C5 22.5523 4.55228 23 4 23Z" fill="#E4E4E7"/>
<path d="M12.9502 20.5146H15.71V10.6006L12.4053 12.1914V10.4863L15.6924 8.92188H17.4678V20.5146H20.1924V22H12.9502V20.5146Z" fill="#0EA5E9"/>
</svg>
