<svg width="32" height="32" viewBox="0 0 32 32" fill="none" xmlns="http://www.w3.org/2000/svg">
<path fill-rule="evenodd" clip-rule="evenodd" d="M4 23C3.44772 23 3 22.5523 3 22C3 18.3601 4.35498 14.8573 6.78518 12.2651C9.21744 9.67069 12.5306 8.2 16 8.2C17.8331 8.2 19.6226 8.61056 21.2615 9.3805L23.3726 5.52019C23.6376 5.03563 24.2453 4.85764 24.7298 5.12263C25.2144 5.38762 25.3924 5.99525 25.1274 6.47981L22.9996 10.3707C23.7956 10.9105 24.5392 11.5444 25.2148 12.2651C27.645 14.8573 29 18.3601 29 22C29 22.5523 28.5523 23 28 23C27.4477 23 27 22.5523 27 22C27 18.8504 25.8264 15.8417 23.7557 13.633C23.226 13.0679 22.6489 12.5672 22.0348 12.1348L18.1634 19.214C18.3786 19.5633 18.5 19.9744 18.5 20.4C18.5 21.5533 17.6084 22.6 16.375 22.6C15.1416 22.6 14.25 21.5533 14.25 20.4C14.25 19.2467 15.1416 18.2 16.375 18.2C16.3961 18.2 16.417 18.2003 16.4379 18.2009L20.2998 11.1392C18.9501 10.5242 17.4889 10.2 16 10.2C13.1042 10.2 10.3129 11.4264 8.24426 13.633C6.17359 15.8417 5 18.8504 5 22C5 22.5523 4.55228 23 4 23Z" fill="#E4E4E7"/>
<path d="M15.9912 8.68457C17.3916 8.68457 18.4492 9.25586 19.1641 10.3984C19.8848 11.541 20.2451 13.2314 20.2451 15.4697C20.2451 17.708 19.8848 19.3984 19.1641 20.541C18.4492 21.6836 17.3916 22.2549 15.9912 22.2549C14.5908 22.2549 13.5332 21.6836 12.8184 20.541C12.1035 19.3984 11.7461 17.708 11.7461 15.4697C11.7461 13.2314 12.1035 11.541 12.8184 10.3984C13.5332 9.25586 14.5908 8.68457 15.9912 8.68457ZM15.9912 20.8486C16.8232 20.8486 17.4414 20.4062 17.8457 19.5215C18.2559 18.6367 18.4609 17.2861 18.4609 15.4697C18.4609 14.5029 18.4023 13.6299 18.2852 12.8506L14.1016 19.3984C14.541 20.3652 15.1709 20.8486 15.9912 20.8486ZM15.9912 10.0908C15.165 10.0908 14.5469 10.5332 14.1367 11.418C13.7324 12.3027 13.5303 13.6533 13.5303 15.4697C13.5303 16.2959 13.5859 17.0693 13.6973 17.79L17.793 11.2598C17.3477 10.4805 16.7471 10.0908 15.9912 10.0908Z" fill="#EF4444"/>
</svg>
