<svg width="32" height="32" viewBox="0 0 32 32" fill="none" xmlns="http://www.w3.org/2000/svg">
<path d="M12.1903 24L19.8094 8M10.6665 16.381C10.6665 17.0813 10.8045 17.7749 11.0725 18.4219C11.3405 19.069 11.7334 19.6569 12.2286 20.1522C12.7238 20.6474 13.3118 21.0403 13.9589 21.3083C14.6059 21.5763 15.2995 21.7143 15.9998 21.7143C16.7002 21.7143 17.3937 21.5763 18.0408 21.3083C18.6879 21.0403 19.2758 20.6474 19.7711 20.1522C20.2663 19.6569 20.6592 19.069 20.9272 18.4219C21.1952 17.7749 21.3332 17.0813 21.3332 16.381C21.3332 15.6806 21.1952 14.987 20.9272 14.34C20.6592 13.6929 20.2663 13.105 19.7711 12.6097C19.2758 12.1145 18.6879 11.7216 18.0408 11.4536C17.3937 11.1856 16.7002 11.0476 15.9998 11.0476C15.2995 11.0476 14.6059 11.1856 13.9589 11.4536C13.3118 11.7216 12.7238 12.1145 12.2286 12.6097C11.7334 13.105 11.3405 13.6929 11.0725 14.34C10.8045 14.987 10.6665 15.6806 10.6665 16.381Z" stroke="white" stroke-width="2" stroke-linecap="round"/>
</svg>
