<svg width="32" height="32" viewBox="0 0 32 32" fill="none" xmlns="http://www.w3.org/2000/svg">
<path fill-rule="evenodd" clip-rule="evenodd" d="M8.67857 20.0714C9.62959 20.0714 11 18.9821 11 16.8214C11 14.6606 9.62959 13.5714 8.67857 13.5714C7.72755 13.5714 6.35714 14.6606 6.35714 16.8214C6.35714 18.9821 7.72755 20.0714 8.67857 20.0714ZM8.67857 21.9285C10.9863 21.9285 12.8571 19.642 12.8571 16.8214C12.8571 14.0008 10.9863 11.7142 8.67857 11.7142C6.37081 11.7142 4.5 14.0008 4.5 16.8214C4.5 19.642 6.37081 21.9285 8.67857 21.9285Z" fill="white"/>
<path fill-rule="evenodd" clip-rule="evenodd" d="M8.58571 17.4714C8.99598 17.1637 9.57801 17.2468 9.88571 17.6571L12.6714 21.3714C12.9791 21.7816 12.896 22.3637 12.4857 22.6714C12.0754 22.9791 11.4934 22.8959 11.1857 22.4857L8.4 18.7714C8.0923 18.3611 8.17545 17.7791 8.58571 17.4714Z" fill="white"/>
<path fill-rule="evenodd" clip-rule="evenodd" d="M14.25 11.7142C14.7628 11.7142 15.1786 12.13 15.1786 12.6428V20.9999C15.1786 21.5128 14.7628 21.9285 14.25 21.9285C13.7372 21.9285 13.3214 21.5128 13.3214 20.9999V12.6428C13.3214 12.13 13.7372 11.7142 14.25 11.7142Z" fill="white"/>
<path fill-rule="evenodd" clip-rule="evenodd" d="M13.7857 12.6428C13.7857 12.13 14.2014 11.7142 14.7143 11.7142H18.8929C19.4057 11.7142 19.8214 12.13 19.8214 12.6428C19.8214 13.1556 19.4057 13.5714 18.8929 13.5714H14.7143C14.2014 13.5714 13.7857 13.1556 13.7857 12.6428Z" fill="white"/>
<path fill-rule="evenodd" clip-rule="evenodd" d="M13.7857 16.3571C13.7857 15.8443 14.2014 15.4285 14.7143 15.4285H18.4286C18.9414 15.4285 19.3571 15.8443 19.3571 16.3571C19.3571 16.8699 18.9414 17.2857 18.4286 17.2857H14.7143C14.2014 17.2857 13.7857 16.8699 13.7857 16.3571Z" fill="white"/>
<path fill-rule="evenodd" clip-rule="evenodd" d="M20.2857 12.6428C20.2857 12.13 20.7014 11.7142 21.2143 11.7142H26.7857C27.2985 11.7142 27.7143 12.13 27.7143 12.6428C27.7143 13.1556 27.2985 13.5714 26.7857 13.5714H21.2143C20.7014 13.5714 20.2857 13.1556 20.2857 12.6428Z" fill="white"/>
<path fill-rule="evenodd" clip-rule="evenodd" d="M24 21.9285C23.4872 21.9285 23.0714 21.5128 23.0714 20.9999V12.6428C23.0714 12.13 23.4872 11.7142 24 11.7142C24.5128 11.7142 24.9286 12.13 24.9286 12.6428V20.9999C24.9286 21.5128 24.5128 21.9285 24 21.9285Z" fill="white"/>
</svg>
