<svg width="32" height="32" viewBox="0 0 32 32" fill="none" xmlns="http://www.w3.org/2000/svg">
<path fill-rule="evenodd" clip-rule="evenodd" d="M9.5 10.4007C9.5 9.85597 9.94158 9.41438 10.4863 9.41438H21.3356C21.8803 9.41438 22.3219 9.85597 22.3219 10.4007C22.3219 10.9454 21.8803 11.387 21.3356 11.387H16.8973V23.2226C16.8973 23.7673 16.4557 24.2089 15.911 24.2089C15.3662 24.2089 14.9247 23.7673 14.9247 23.2226V11.387H10.4863C9.94158 11.387 9.5 10.9454 9.5 10.4007Z" fill="white"/>
<path fill-rule="evenodd" clip-rule="evenodd" d="M24.7877 3.25C25.1962 3.25 25.5274 3.58119 25.5274 3.98973V6.2089H26.7603C27.1688 6.2089 27.5 6.54009 27.5 6.94863C27.5 7.35717 27.1688 7.68836 26.7603 7.68836H25.5274V11.8801C25.5274 12.2887 25.1962 12.6199 24.7877 12.6199C24.3791 12.6199 24.0479 12.2887 24.0479 11.8801V7.68836H22.8151C22.4065 7.68836 22.0753 7.35717 22.0753 6.94863C22.0753 6.54009 22.4065 6.2089 22.8151 6.2089H24.0479V3.98973C24.0479 3.58119 24.3791 3.25 24.7877 3.25Z" fill="white"/>
</svg>
