<svg width="32" height="32" viewBox="0 0 32 32" fill="none" xmlns="http://www.w3.org/2000/svg">
<path d="M0 4C0 1.79086 1.79086 0 4 0H28C30.2091 0 32 1.79086 32 4V28C32 30.2091 30.2091 32 28 32H4C1.79086 32 0 30.2091 0 28V4Z" fill="#A855F7"/>
<path d="M25 7L7 7M25 22.0968L16 25L7 22.0968" stroke="#E4E4E7" stroke-width="1.5" stroke-linecap="round" stroke-linejoin="round"/>
<path d="M21.3564 15.9932C21.3564 17.0824 20.9121 17.9049 20.0234 18.4609C19.1348 19.0215 17.82 19.3018 16.0791 19.3018C14.3382 19.3018 13.0234 19.0215 12.1348 18.4609C11.2461 17.9049 10.8018 17.0824 10.8018 15.9932C10.8018 14.904 11.2461 14.0814 12.1348 13.5254C13.0234 12.9694 14.3382 12.6914 16.0791 12.6914C17.82 12.6914 19.1348 12.9694 20.0234 13.5254C20.9121 14.0814 21.3564 14.904 21.3564 15.9932ZM11.8955 15.9932C11.8955 16.6403 12.2396 17.1211 12.9277 17.4355C13.6159 17.7546 14.6663 17.9141 16.0791 17.9141C16.8311 17.9141 17.5101 17.8685 18.1162 17.7773L13.0234 14.5234C12.2715 14.8652 11.8955 15.3551 11.8955 15.9932ZM20.2627 15.9932C20.2627 15.3506 19.9186 14.8698 19.2305 14.5508C18.5423 14.2363 17.4919 14.0791 16.0791 14.0791C15.4365 14.0791 14.835 14.1224 14.2744 14.209L19.3535 17.3945C19.9596 17.0482 20.2627 16.5811 20.2627 15.9932Z" fill="white"/>
</svg>
