<svg width="40" height="40" viewBox="0 0 40 40" fill="none" xmlns="http://www.w3.org/2000/svg">
<path d="M8 4.5H32C33.933 4.5 35.5 6.067 35.5 8V32C35.5 33.933 33.933 35.5 32 35.5H8C6.067 35.5 4.5 33.933 4.5 32V8C4.5 6.067 6.067 4.5 8 4.5Z" fill="#10B981"/>
<path d="M15.8595 11.4889C15.5773 11.0142 14.9637 10.8582 14.4889 11.1405C14.0142 11.4227 13.8582 12.0363 14.1405 12.5111L15.8595 11.4889ZM25.8595 12.5111C26.1418 12.0363 25.9858 11.4227 25.5111 11.1405C25.0363 10.8582 24.4227 11.0142 24.1405 11.4889L25.8595 12.5111ZM19 27C19 27.5523 19.4477 28 20 28C20.5523 28 21 27.5523 21 27H19ZM14.1405 12.5111L18.9617 20.6198L20.6807 19.5977L15.8595 11.4889L14.1405 12.5111ZM24.1405 11.4889L19.3193 19.5977L21.0383 20.6198L25.8595 12.5111L24.1405 11.4889ZM19 19.515V27H21V19.515H19Z" fill="white"/>
<path d="M8 4.5H32C33.933 4.5 35.5 6.067 35.5 8V32C35.5 33.933 33.933 35.5 32 35.5H8C6.067 35.5 4.5 33.933 4.5 32V8C4.5 6.067 6.067 4.5 8 4.5Z" stroke="#047857"/>
<rect x="1" y="1" width="38" height="38" rx="5" stroke="#A855F7" stroke-width="2"/>
</svg>
