<svg width="32" height="32" viewBox="0 0 32 32" fill="none" xmlns="http://www.w3.org/2000/svg">
<path d="M4 0.5H28C29.933 0.5 31.5 2.067 31.5 4V28C31.5 29.933 29.933 31.5 28 31.5H4C2.067 31.5 0.5 29.933 0.5 28V4C0.5 2.067 2.067 0.5 4 0.5Z" fill="#10B981"/>
<path d="M11.8595 7.48894C11.5773 7.01423 10.9637 6.8582 10.4889 7.14045C10.0142 7.42271 9.8582 8.03635 10.1405 8.51106L11.8595 7.48894ZM21.8595 8.51106C22.1418 8.03635 21.9858 7.42271 21.5111 7.14046C21.0363 6.8582 20.4227 7.01423 20.1405 7.48894L21.8595 8.51106ZM15 23C15 23.5523 15.4477 24 16 24C16.5523 24 17 23.5523 17 23H15ZM10.1405 8.51106L14.9617 16.6198L16.6807 15.5977L11.8595 7.48894L10.1405 8.51106ZM20.1405 7.48894L15.3193 15.5977L17.0383 16.6198L21.8595 8.51106L20.1405 7.48894ZM15 15.515V23H17V15.515H15Z" fill="white"/>
<path d="M4 0.5H28C29.933 0.5 31.5 2.067 31.5 4V28C31.5 29.933 29.933 31.5 28 31.5H4C2.067 31.5 0.5 29.933 0.5 28V4C0.5 2.067 2.067 0.5 4 0.5Z" stroke="#047857"/>
</svg>
